<svg width="28" height="28" viewBox="0 0 28 28" fill="none" xmlns="http://www.w3.org/2000/svg">
<g clip-path="url(#clip0_3860_739)">
<path d="M14 28C21.732 28 28 21.732 28 14C28 6.26801 21.732 0 14 0C6.26801 0 0 6.26801 0 14C0 21.732 6.26801 28 14 28Z" fill="#334C8C"/>
<path d="M17.5477 12.6755L17.3156 14.6245C17.3056 14.715 17.2624 14.7986 17.1944 14.8592C17.1263 14.9197 17.0383 14.9529 16.9472 14.9524H14.9209V20.7366C14.9214 20.8056 14.8945 20.8721 14.8462 20.9214C14.7979 20.9708 14.732 20.999 14.663 21H12.598C12.5636 20.9995 12.5297 20.9923 12.4982 20.9787C12.4666 20.9651 12.438 20.9454 12.4141 20.9208C12.3901 20.8962 12.3713 20.867 12.3586 20.8351C12.3459 20.8032 12.3396 20.7691 12.3401 20.7347L12.3511 14.9524H10.8167C10.719 14.9524 10.6252 14.9136 10.5561 14.8445C10.4871 14.7754 10.4482 14.6817 10.4482 14.5839V12.635C10.4482 12.5373 10.4871 12.4436 10.5561 12.3745C10.6252 12.3054 10.719 12.2666 10.8167 12.2666H12.3419V10.3766C12.3419 8.19 13.6425 7 15.5472 7H17.1075C17.2052 7 17.2989 7.03882 17.368 7.10791C17.4371 7.177 17.4759 7.27071 17.4759 7.36842V9.00974C17.4759 9.10745 17.4371 9.20116 17.368 9.27025C17.2989 9.33934 17.2052 9.37816 17.1075 9.37816H16.1514C15.1161 9.39474 14.9209 9.89026 14.9209 10.6308V12.2611H17.1885C17.2402 12.2619 17.2912 12.2737 17.3381 12.2956C17.385 12.3175 17.4267 12.349 17.4606 12.3881C17.4945 12.4272 17.5198 12.473 17.5348 12.5225C17.5498 12.5721 17.5542 12.6242 17.5477 12.6755Z" fill="white"/>
</g>
<defs>
<clipPath id="clip0_3860_739">
<rect width="28" height="28" fill="white"/>
</clipPath>
</defs>
</svg>
