<svg width="29" height="29" viewBox="0 0 29 29" fill="none" xmlns="http://www.w3.org/2000/svg">
<g clip-path="url(#clip0_1002_10630)">
<path d="M14.5 29C22.5081 29 29 22.5081 29 14.5C29 6.49187 22.5081 0 14.5 0C6.49187 0 0 6.49187 0 14.5C0 22.5081 6.49187 29 14.5 29Z" fill="#5C5560"/>
<path d="M14.5 29C22.5081 29 29 22.5081 29 14.5C29 6.49187 22.5081 0 14.5 0C6.49187 0 0 6.49187 0 14.5C0 22.5081 6.49187 29 14.5 29Z" fill="#EEEEEE"/>
<path d="M27.0167 12.1201H21.6914H14.78V17.1599H21.592C20.9788 18.7963 19.8148 20.1634 18.3253 21.0369C17.2033 21.6956 15.8958 22.0729 14.5 22.0729C11.2529 22.0729 8.48313 20.0289 7.4073 17.1577C7.09652 16.331 6.92716 15.4351 6.92716 14.5C6.92716 13.6383 7.07131 12.8103 7.33594 12.0389C8.35785 9.06478 11.1795 6.9271 14.5 6.9271C15.9706 6.9271 17.3433 7.34636 18.5045 8.07226L22.6315 4.69354C20.4252 2.86178 17.5911 1.76074 14.5 1.76074C9.57653 1.76074 5.30537 4.55358 3.18514 8.64139C2.27447 10.3954 1.76074 12.3875 1.76074 14.5C1.76074 16.6846 2.31021 18.7404 3.27899 20.5372C5.43066 24.5276 9.64863 27.2393 14.5 27.2393C17.5189 27.2393 20.2922 26.1894 22.4754 24.4346C24.7201 22.63 26.3405 20.0801 26.9607 17.1599C27.1434 16.3017 27.2393 15.412 27.2393 14.5C27.2393 13.6867 27.163 12.8908 27.0167 12.1201Z" fill="#FBBB00"/>
<path d="M22.475 24.4338L22.4757 24.4346C20.2925 26.1893 17.5193 27.2392 14.5003 27.2392C9.64893 27.2392 5.43096 24.5276 3.2793 20.5371L7.40766 17.1577C8.48349 20.0289 11.2532 22.0729 14.5004 22.0729C15.8961 22.0729 17.2037 21.6956 18.3257 21.0369L22.475 24.4338Z" fill="#28B446"/>
<path d="M27.017 12.1201C27.1633 12.8908 27.2396 13.6866 27.2396 14.5C27.2396 15.412 27.1437 16.3017 26.9611 17.1598C26.3409 20.0801 24.7205 22.63 22.4757 24.4345L22.475 24.4338L18.3256 21.0369C19.8151 20.1633 20.9791 18.7963 21.5923 17.1598H14.7803V12.1201H21.6917H27.017Z" fill="#518EF8"/>
<path d="M22.6319 4.69359L18.5049 8.07232C17.3437 7.34641 15.9711 6.92716 14.5004 6.92716C11.1798 6.92716 8.35825 9.06483 7.33634 12.039L3.18628 8.64139H3.18555C5.30578 4.55358 9.57687 1.76074 14.5004 1.76074C17.5915 1.76074 20.4256 2.86178 22.6319 4.69359Z" fill="#FC3F1D"/>
</g>
<defs>
<clipPath id="clip0_1002_10630">
<rect width="29" height="29" fill="white"/>
</clipPath>
</defs>
</svg>
