<svg width="22" height="24" viewBox="0 0 22 24" fill="none" xmlns="http://www.w3.org/2000/svg">
<g clip-path="url(#clip0_104_961)">
<path d="M13 8.9V7.2C13.55 6.96667 14.1125 6.79167 14.6875 6.675C15.2625 6.55833 15.8667 6.5 16.5 6.5C16.9333 6.5 17.3583 6.53333 17.775 6.6C18.1917 6.66667 18.6 6.75 19 6.85V8.45C18.6 8.3 18.1958 8.1875 17.7875 8.1125C17.3792 8.0375 16.95 8 16.5 8C15.8667 8 15.2583 8.07917 14.675 8.2375C14.0917 8.39583 13.5333 8.61667 13 8.9ZM13 14.4V12.7C13.55 12.4667 14.1125 12.2917 14.6875 12.175C15.2625 12.0583 15.8667 12 16.5 12C16.9333 12 17.3583 12.0333 17.775 12.1C18.1917 12.1667 18.6 12.25 19 12.35V13.95C18.6 13.8 18.1958 13.6875 17.7875 13.6125C17.3792 13.5375 16.95 13.5 16.5 13.5C15.8667 13.5 15.2583 13.575 14.675 13.725C14.0917 13.875 13.5333 14.1 13 14.4ZM13 11.65V9.95C13.55 9.71667 14.1125 9.54167 14.6875 9.425C15.2625 9.30833 15.8667 9.25 16.5 9.25C16.9333 9.25 17.3583 9.28333 17.775 9.35C18.1917 9.41667 18.6 9.5 19 9.6V11.2C18.6 11.05 18.1958 10.9375 17.7875 10.8625C17.3792 10.7875 16.95 10.75 16.5 10.75C15.8667 10.75 15.2583 10.8292 14.675 10.9875C14.0917 11.1458 13.5333 11.3667 13 11.65ZM5.5 15C6.28333 15 7.04583 15.0875 7.7875 15.2625C8.52917 15.4375 9.26667 15.7 10 16.05V6.2C9.31667 5.8 8.59167 5.5 7.825 5.3C7.05833 5.1 6.28333 5 5.5 5C4.9 5 4.30417 5.05833 3.7125 5.175C3.12083 5.29167 2.55 5.46667 2 5.7V15.6C2.58333 15.4 3.1625 15.25 3.7375 15.15C4.3125 15.05 4.9 15 5.5 15ZM12 16.05C12.7333 15.7 13.4708 15.4375 14.2125 15.2625C14.9542 15.0875 15.7167 15 16.5 15C17.1 15 17.6875 15.05 18.2625 15.15C18.8375 15.25 19.4167 15.4 20 15.6V5.7C19.45 5.46667 18.8792 5.29167 18.2875 5.175C17.6958 5.05833 17.1 5 16.5 5C15.7167 5 14.9417 5.1 14.175 5.3C13.4083 5.5 12.6833 5.8 12 6.2V16.05ZM11 19C10.2 18.3667 9.33333 17.875 8.4 17.525C7.46667 17.175 6.5 17 5.5 17C4.8 17 4.1125 17.0917 3.4375 17.275C2.7625 17.4583 2.11667 17.7167 1.5 18.05C1.15 18.2333 0.8125 18.225 0.4875 18.025C0.1625 17.825 0 17.5333 0 17.15V5.1C0 4.91667 0.0458333 4.74167 0.1375 4.575C0.229167 4.40833 0.366667 4.28333 0.55 4.2C1.31667 3.8 2.11667 3.5 2.95 3.3C3.78333 3.1 4.63333 3 5.5 3C6.46667 3 7.4125 3.125 8.3375 3.375C9.2625 3.625 10.15 4 11 4.5C11.85 4 12.7375 3.625 13.6625 3.375C14.5875 3.125 15.5333 3 16.5 3C17.3667 3 18.2167 3.1 19.05 3.3C19.8833 3.5 20.6833 3.8 21.45 4.2C21.6333 4.28333 21.7708 4.40833 21.8625 4.575C21.9542 4.74167 22 4.91667 22 5.1V17.15C22 17.5333 21.8375 17.825 21.5125 18.025C21.1875 18.225 20.85 18.2333 20.5 18.05C19.8833 17.7167 19.2375 17.4583 18.5625 17.275C17.8875 17.0917 17.2 17 16.5 17C15.5 17 14.5333 17.175 13.6 17.525C12.6667 17.875 11.8 18.3667 11 19Z" fill="#5F6368"/>
</g>
<defs>
<clipPath id="clip0_104_961">
<rect width="22" height="24" fill="white"/>
</clipPath>
</defs>
</svg>
