<svg width="24" height="24" viewBox="0 0 24 24" fill="none" xmlns="http://www.w3.org/2000/svg">
<path d="M15.7068 21.2928C15.3163 21.6832 14.6833 21.6832 14.2928 21.2928L12.7068 19.7068C12.3165 19.3163 12.3165 18.6833 12.7068 18.2928L18.2928 12.7068C18.6833 12.3165 19.3163 12.3165 19.7068 12.7068L21.2928 14.2928C21.6832 14.6833 21.6832 15.3163 21.2928 15.7068L15.7068 21.2928" stroke="#5F6368" stroke-width="2" stroke-linecap="round" stroke-linejoin="round"/>
<path d="M18 13L16.625 6.12603C16.5487 5.74417 16.2576 5.44138 15.879 5.35003L3.23503 2.02803C2.89629 1.94613 2.53934 2.04649 2.29291 2.29291C2.04649 2.53934 1.94613 2.89629 2.02803 3.23503L5.35003 15.879C5.44138 16.2576 5.74417 16.5487 6.12603 16.625L13 18M2.30003 2.30003L9.58603 9.58603" stroke="#5F6368" stroke-width="2" stroke-linecap="round" stroke-linejoin="round"/>
<path d="M9 11C9 12.1038 9.89617 13 11 13C12.1038 13 13 12.1038 13 11C13 9.89617 12.1038 9 11 9C9.89617 9 9 9.89617 9 11V11" stroke="#5F6368" stroke-width="2" stroke-linecap="round" stroke-linejoin="round"/>
</svg>
